<svg width="419" height="210" viewBox="0 0 419 210" fill="none" xmlns="http://www.w3.org/2000/svg">
<g clip-path="url(#clip0_9_90)">
<path d="M182.883 2.45164L149.149 117.837L360.621 175.68L394.355 60.2943L182.883 2.45164Z" fill="#454545"/>
<path d="M186.536 8.97162C187.504 8.97162 188.288 8.21316 188.288 7.27756C188.288 6.34195 187.504 5.5835 186.536 5.5835C185.569 5.5835 184.785 6.34195 184.785 7.27756C184.785 8.21316 185.569 8.97162 186.536 8.97162Z" fill="#2DA1F4"/>
<path d="M191.929 10.4468C192.897 10.4468 193.681 9.68838 193.681 8.75278C193.681 7.81717 192.897 7.05872 191.929 7.05872C190.962 7.05872 190.178 7.81717 190.178 8.75278C190.178 9.68838 190.962 10.4468 191.929 10.4468Z" fill="#2DA1F4"/>
<path d="M197.322 11.9219C198.29 11.9219 199.074 11.1635 199.074 10.2279C199.074 9.29227 198.29 8.53381 197.322 8.53381C196.355 8.53381 195.571 9.29227 195.571 10.2279C195.571 11.1635 196.355 11.9219 197.322 11.9219Z" fill="#2DA1F4"/>
<path d="M295.114 75.6677C292.283 75.15 289.371 75.2165 286.568 75.8628C287.384 73.1525 287.59 70.3045 287.172 67.5107C284.286 68.5212 281.675 70.1514 279.534 72.2787C278.862 69.3819 277.519 66.6703 275.608 64.3475C273.739 66.5159 272.373 69.0465 271.6 71.7687C269.563 69.7985 267.118 68.2668 264.426 67.2738C264.426 67.2738 263.15 73.5483 266.221 78.6968C268.954 83.2792 274.205 85.4236 275.328 85.8402L275.354 85.8707L275.368 85.8552C275.482 85.897 275.546 85.9183 275.546 85.9183C275.546 85.9183 275.57 85.7978 275.603 85.5827C275.624 85.5586 275.644 85.5341 275.666 85.507C275.671 85.5413 275.675 85.5725 275.679 85.6033C275.591 85.8034 275.546 85.9183 275.546 85.9183C275.546 85.9183 275.612 85.9324 275.732 85.9545L275.735 85.9749L275.774 85.9622C276.956 86.176 282.59 87.009 287.4 84.4897C292.803 81.659 295.114 75.6677 295.114 75.6677Z" fill="#2DA1F4"/>
<path d="M284.633 59.64C287.148 59.64 289.187 57.6681 289.187 55.2355C289.187 52.8029 287.148 50.8309 284.633 50.8309C282.118 50.8309 280.08 52.8029 280.08 55.2355C280.08 57.6681 282.118 59.64 284.633 59.64Z" fill="#2DA1F4"/>
<path d="M341.81 112.422L204.962 74.991L204.12 77.8708L340.968 115.302L341.81 112.422Z" fill="#2DA1F4"/>
<path d="M237.171 99.2933L213.576 92.8396L206.904 115.661L230.499 122.115L237.171 99.2933Z" fill="#2DA1F4"/>
<path d="M280.989 111.279L257.395 104.825L250.723 127.647L274.317 134.101L280.989 111.279Z" fill="#2DA1F4"/>
<path d="M324.808 123.264L301.213 116.81L294.541 139.632L318.135 146.086L324.808 123.264Z" fill="#2DA1F4"/>
<path d="M226.131 125.85L208.603 121.056L208.031 123.012L225.559 127.806L226.131 125.85Z" fill="#2DA1F4"/>
<path d="M269.949 137.835L252.422 133.041L251.85 134.997L269.377 139.791L269.949 137.835Z" fill="#2DA1F4"/>
<path d="M313.767 149.821L296.24 145.026L295.668 146.983L313.195 151.777L313.767 149.821Z" fill="#2DA1F4"/>
<path d="M119.534 162.49C184.274 162.49 236.757 160.614 236.757 158.298C236.757 155.983 184.274 154.106 119.534 154.106C54.7939 154.106 2.31152 155.983 2.31152 158.298C2.31152 160.614 54.7939 162.49 119.534 162.49Z" fill="#D0CDE1"/>
<path d="M327.781 210C378.16 210 419 208.123 419 205.808C419 203.493 378.16 201.616 327.781 201.616C277.402 201.616 236.562 203.493 236.562 205.808C236.562 208.123 277.402 210 327.781 210Z" fill="#D0CDE1"/>
<path d="M283.042 173.27H309.358V183.915H294.047V194.56H309.359V205.205H283.042V173.27ZM314.622 173.27H340.939V182.527H325.627V184.378H340.939V205.668H314.623V195.948H329.934V194.096H314.621V173.27H314.622ZM346.203 173.27H372.52V182.527H357.209V184.378H372.52V205.668H346.203V195.948H361.515V194.096H346.204V173.27H346.203Z" fill="#454545"/>
<path d="M53.0349 124.563H63.8913V134.937H73.8227V124.563H84.6797V155.98H73.8233V145.46H63.892V155.98H53.0356V124.563H53.0349ZM98.9556 134.981H89.3996V124.563H119.376V134.981H109.814V155.98H98.9576V134.981H98.9556ZM124.133 124.563H135.453L142.417 135.602L149.373 124.563H160.698V155.98H149.886V140.408L142.417 151.578H142.229L134.756 140.408V155.98H124.133V124.563ZM166.101 124.563H176.961V145.596H192.228V155.98H166.1V124.563H166.101Z" fill="#454545"/>
<path d="M33.86 146.158L32.9692 155.926L40.0975 155.351V147.02L33.86 146.158Z" fill="#FFB8B8"/>
<path d="M27.3258 146.158L28.2169 155.926L21.0886 155.351V147.02L27.3258 146.158Z" fill="#FFB8B8"/>
<path d="M46.038 71.1747C46.038 71.1747 48.4141 84.9647 48.4141 86.9758C48.4141 88.9868 47.5231 101.915 46.038 104.501C44.5529 107.086 44.2559 108.235 44.8499 109.385C45.444 110.534 45.1469 110.246 44.8499 111.108C44.5529 111.97 43.9589 111.683 44.8499 112.832C45.2138 113.338 45.4088 113.94 45.4088 114.556C45.4088 115.172 45.2138 115.774 44.8499 116.28C44.2559 117.142 46.038 140.412 43.6618 142.136C41.2857 143.86 40.6916 149.606 40.6916 149.606L32.9691 148.744V142.423C32.9691 142.423 31.187 137.827 32.3751 134.954C33.5632 132.081 34.1572 116.854 34.1572 116.854C34.1572 116.854 33.8602 115.418 34.1572 114.556C34.4542 113.694 34.1572 113.119 33.5632 112.832C32.9692 112.545 32.6721 111.396 32.6721 111.396L31.7811 90.4233L28.2168 111.108C28.2168 111.108 31.7811 139.263 28.2168 142.998V149.606H20.4943L21.6824 142.423C21.6824 142.423 19.3063 135.816 20.4943 134.379C21.6824 132.943 16.9301 109.959 17.5242 109.097C18.1182 108.235 17.8212 107.948 17.5242 107.374C17.2271 106.799 16.3361 106.224 16.6331 105.65C16.9301 105.075 16.6331 103.926 16.6331 103.926C16.6331 103.926 10.9897 76.9205 13.6629 74.3349C16.3361 71.7493 46.038 71.1747 46.038 71.1747Z" fill="#2F2E41"/>
<path d="M34.7513 152.191C34.7513 152.191 35.3453 149.436 40.0976 150.383C40.0976 150.383 41.2857 152.766 41.2857 153.915C41.2857 155.064 42.4738 162.821 42.4738 162.821C42.4738 162.821 47.2261 170.578 41.2857 170.578C35.3453 170.578 33.2662 168.567 32.9692 166.556C32.6722 164.545 33.2662 163.97 32.0781 163.108C30.89 162.247 30.296 162.247 30.593 161.097C30.89 159.948 31.4841 154.202 31.4841 154.202C31.4841 154.202 31.7811 149.893 33.4147 151.042L35.0483 152.191" fill="#2F2E41"/>
<path d="M26.4348 152.191C26.4348 152.191 25.8407 149.436 21.0884 150.383C21.0884 150.383 19.9004 152.766 19.9004 153.915C19.9004 155.064 18.7123 162.821 18.7123 162.821C18.7123 162.821 13.96 170.578 19.9004 170.578C25.8407 170.578 27.9199 168.567 28.2169 166.556C28.5139 164.545 27.9199 163.97 29.108 163.108C30.296 162.247 30.8901 162.247 30.5931 161.097C30.296 159.948 29.702 154.202 29.702 154.202C29.702 154.202 29.405 149.893 27.7714 151.042L26.1378 152.191" fill="#2F2E41"/>
<path d="M35.0483 18.3129C39.4774 18.3129 43.0678 14.84 43.0678 10.556C43.0678 6.27196 39.4774 2.79907 35.0483 2.79907C30.6193 2.79907 27.0288 6.27196 27.0288 10.556C27.0288 14.84 30.6193 18.3129 35.0483 18.3129Z" fill="#FFB8B8"/>
<path d="M28.5138 11.7051C28.5138 11.7051 25.2466 24.0587 24.6526 24.346C24.0585 24.6332 38.3155 25.7824 38.3155 25.7824C38.3155 25.7824 34.7512 15.1526 38.3155 13.4288L28.5138 11.7051Z" fill="#FFB8B8"/>
<path d="M26.4273 19.2333L26.4269 19.2317L16.6331 25.7824L18.4152 77.2078C18.4152 77.2078 31.484 75.7714 34.4542 76.0587C37.4244 76.346 46.929 73.473 46.929 73.473L42.7658 25.1507C42.6845 24.2065 42.2566 23.3216 41.5595 22.6559C40.8625 21.9902 39.9422 21.5876 38.9651 21.521L37.1812 21.3993C37.1812 21.3993 35.3993 25.6669 30.0377 23.4652C29.1338 23.0849 28.3355 22.5033 27.7081 21.7679C27.0807 21.0324 26.6418 20.164 26.4273 19.2333Z" fill="#D0CDE1"/>
<path d="M26.6641 18.7643L14.554 24.346L12.1778 57.3847C12.1778 57.3847 7.42549 77.2079 11.2867 82.9537C15.148 88.6996 21.6824 89.2742 21.6824 89.2742C21.6824 89.2742 30.296 56.2355 27.9198 45.0311C25.5437 33.8267 26.6641 18.7643 26.6641 18.7643Z" fill="#575A89"/>
<path d="M3.86128 68.5891V72.8985C3.86128 72.8985 2.07916 82.3792 7.72252 82.0919C13.3659 81.8046 10.6927 71.7493 10.6927 71.7493L8.9106 68.5891H3.86128Z" fill="#FFB8B8"/>
<path d="M56.1367 77.2079L55.5426 82.0919C55.5426 82.0919 58.5128 91.8598 52.8695 92.1471C47.2261 92.4344 51.3225 82.1518 51.3225 82.1518L53.1665 76.6333L56.1367 77.2079Z" fill="#FFB8B8"/>
<path d="M37.0024 20.3953C42.4144 21.6847 47.4295 24.2063 51.6298 27.7501L51.6812 27.7935L47.5229 49.0531L46.9289 56.81C46.9289 56.81 57.9186 94.7326 45.1468 89.2741C45.1468 89.2741 34.1571 56.2354 35.6422 41.0089C37.1273 25.7824 37.0024 20.3953 37.0024 20.3953Z" fill="#575A89"/>
<path d="M47.9842 27.4804C48.2831 27.1949 51.8429 27.9039 51.8429 27.9039C51.8429 27.9039 58.2368 50.2415 58.2133 53.9762C58.1898 57.7109 58.9471 78.9758 58.9471 78.9758L51.1021 79.6909L44.942 50.1132L47.9842 27.4804Z" fill="#575A89"/>
<path d="M16.6331 24.3459H14.5539C14.5539 24.3459 8.61355 26.6443 8.31653 29.2299C8.01952 31.8156 0 57.9592 0 57.9592L2.07913 71.1747L9.80163 70.0255L11.2867 55.3736L19.0092 39.2852L16.6331 24.3459Z" fill="#575A89"/>
<path d="M33.4903 12.7208L33.7978 10.6476C33.8694 10.1644 34.1618 9.52902 34.6479 9.66044C35.0613 9.77223 35.962 10.1145 36.1128 10.0112C36.6775 9.62424 37.5321 10.3009 38.126 9.95711C38.3748 9.81309 38.5371 9.50454 38.8263 9.48394C39.0203 9.49593 39.2031 9.57604 39.3404 9.70922C39.7259 10.0335 40.1801 10.2722 40.6711 10.4085C40.9175 10.4734 41.1773 10.4733 41.4236 10.4084C41.67 10.3434 41.8939 10.2159 42.0721 10.0391C42.1351 9.94491 42.2199 9.86625 42.3199 9.8094C42.4372 9.77669 42.5624 9.78226 42.6761 9.82525L44.1934 10.2248C44.4166 9.44221 44.4624 8.62221 44.3278 7.82087C44.1932 7.01953 43.8813 6.25576 43.4134 5.58175C42.7978 4.77358 42.0516 4.06668 41.2034 3.48828C40.2637 2.79683 39.294 2.14646 38.2942 1.53719C37.2342 0.811784 36.031 0.305478 34.7598 0.049868C33.4802 -0.138074 32.0475 0.198172 31.2426 1.17852C30.8641 0.913498 30.5795 0.541688 30.428 0.114077C30.3378 0.193493 30.2666 0.291107 30.2197 0.400019C30.1727 0.508931 30.151 0.626487 30.1561 0.744395C30.1612 0.862302 30.1931 0.977683 30.2493 1.08239C30.3056 1.1871 30.385 1.27859 30.4818 1.35039L29.1985 0.557763C28.8378 0.924133 29.5426 1.58848 29.2352 1.99786C29.1423 2.09911 29.023 2.17445 28.8898 2.21604C28.193 2.47873 27.5544 2.86751 27.0081 3.36156C26.3166 4.12364 25.8102 5.02585 25.5263 6.00196C24.7616 8.12389 24.2058 10.5573 25.2923 12.5436C25.4154 12.7688 27.0413 16.4855 27.2579 16.6305C27.9901 17.1204 27.5135 15.9347 28.0381 16.6305C28.4496 17.1761 28.3726 15.0879 28.984 15.5462C29.2238 15.7122 29.5081 15.8073 29.8025 15.8201C30.097 15.8329 30.389 15.7628 30.6432 15.6184C30.8967 15.4484 30.815 14.504 30.6782 13.6369C30.652 13.4717 30.6682 13.3028 30.7252 13.1451C30.7822 12.9873 30.8783 12.8455 31.0051 12.7321C31.132 12.6186 31.2857 12.537 31.4527 12.4944C31.6197 12.4517 31.7951 12.4494 31.9633 12.4875C32.7248 12.6608 33.4772 12.8088 33.4903 12.7208Z" fill="#9D9651"/>
<path opacity="0.2" d="M48.5627 53.5061L51.8297 79.6499H49.7507L48.5627 53.5061Z" fill="black"/>
<path opacity="0.2" d="M14.1084 43.4508L12.4565 53.5061L15.5935 43.4508H14.7023H14.1084Z" fill="black"/>
</g>
<defs>
<clipPath id="clip0_9_90">
<rect width="419" height="210" fill="white"/>
</clipPath>
</defs>
</svg>
