<svg width="548" height="347" viewBox="0 0 548 347" fill="none" xmlns="http://www.w3.org/2000/svg">
<g clip-path="url(#clip0_9_272)">
<path d="M462.219 176.971L506.707 127.689L462.219 78.4065L475.782 63.3857L533.835 127.689L475.782 191.991L462.219 176.971Z" fill="#E6E6E6"/>
<path d="M310.668 176.469L266.134 127.187L310.622 77.9045L297.059 62.8838L239.052 127.187L297.104 191.489L310.668 176.469Z" fill="#E6E6E6"/>
<path d="M462.219 167.426L506.707 118.144L462.219 68.8611L475.782 53.8403L533.835 118.144L475.782 182.447L462.219 167.426Z" fill="#2DA1F4"/>
<path d="M310.668 166.923L266.134 117.641L310.622 68.3591L297.059 53.3384L239.052 117.641L297.104 181.944L310.668 166.923Z" fill="#2DA1F4"/>
<path d="M92.8845 327.607L103.009 330.327L117.267 288.232L102.325 284.218L92.8845 327.607Z" fill="#FFB8B8"/>
<path d="M88.0911 337.709L91.1999 323.42L111.008 328.741C114.341 329.64 117.217 331.973 119.005 335.226C120.793 338.479 121.346 342.387 120.544 346.093L120.475 346.408L88.0911 337.709Z" fill="#2F2E41"/>
<path d="M137.702 335.271L148.118 335.27L153.072 290.631L137.701 290.631L137.702 335.271Z" fill="#FFB8B8"/>
<path d="M135.179 331.64L155.557 331.639H155.558C158.989 331.639 162.28 333.154 164.707 335.85C167.133 338.546 168.496 342.202 168.497 346.015V346.339L135.18 346.341L135.179 331.64Z" fill="#2F2E41"/>
<path d="M135.258 319.824L136.971 250.378L134.664 222.217L130.163 243.889L110.495 315.153L93.5403 310.195L113.177 233.355L108.912 184.07L121.165 175.318L121.33 175.351L163.194 183.925L153.081 317.844L135.258 319.824Z" fill="#2F2E41"/>
<path d="M151.827 193.594C148.455 193.594 144.512 192.387 140.124 188.945C126.079 177.931 109.334 189.779 109.166 189.899L108.486 190.39L108.51 189.49C108.527 188.848 110.209 125.068 110.209 104.545C110.209 83.341 122.659 67.8593 126.475 63.6197C130.22 59.4575 133.372 59.5496 137.361 59.6649C138.049 59.6842 138.765 59.7054 139.519 59.7054C144.732 59.7054 149.801 65.2707 150.014 65.5076L150.116 65.621L150.135 65.7796L164.601 186.807L164.49 186.963C164.423 187.058 159.673 193.594 151.827 193.594Z" fill="#CCCCCC"/>
<path d="M160.042 40.4962C165.57 29.2605 161.854 15.1732 151.742 9.03121C141.63 2.88924 128.952 7.01849 123.424 18.2542C117.896 29.4898 121.613 43.5772 131.724 49.7192C141.836 55.8611 154.515 51.7319 160.042 40.4962Z" fill="#FFB8B8"/>
<path d="M173.676 212.972C172.689 212.122 171.881 211.042 171.31 209.808C170.74 208.574 170.419 207.215 170.372 205.828C170.325 204.442 170.552 203.06 171.037 201.782C171.522 200.503 172.254 199.358 173.18 198.427L161.33 167.37L176.846 170.543L185.72 199.549C187.024 201.382 187.677 203.683 187.556 206.016C187.435 208.348 186.549 210.55 185.064 212.205C183.579 213.86 181.6 214.852 179.501 214.993C177.402 215.134 175.33 214.416 173.676 212.972Z" fill="#FFB8B8"/>
<path d="M170.319 195.294L148.908 146.759L139.519 110.231L139.527 78.4976C139.548 78.3722 141.755 66.0285 149.935 66.8822C157.353 67.6805 161.349 71.7109 163.294 80.3588C164.947 87.7052 162.687 109.5 162.468 111.556C163.903 115.338 185.437 172.348 181.872 179.214C181.739 179.481 181.544 179.705 181.309 179.863L185.124 188.814L170.319 195.294Z" fill="#CCCCCC"/>
<path d="M139.065 38.1102C141.567 38.4718 143.453 35.6282 144.329 32.9995C145.204 30.3708 145.87 27.3105 148.045 25.8905C151.016 23.9506 154.818 26.2838 158.215 25.6438C162.053 24.921 164.547 20.4026 164.743 16.0837C164.938 11.7649 163.392 7.61107 161.874 3.62915L161.344 8.57779C161.415 6.90057 161.097 5.23121 160.422 3.72938C159.746 2.22755 158.735 0.943479 157.485 0L158.167 7.26135C158.022 6.25953 157.7 5.29948 157.22 4.43627C156.74 3.57305 156.111 2.82367 155.37 2.23116C154.628 1.63864 153.789 1.21465 152.9 0.983509C152.011 0.752367 151.089 0.718625 150.188 0.884226L150.295 5.21082C145.864 4.62527 141.393 4.03889 136.948 4.485C132.503 4.9311 128.027 6.49371 124.659 9.74635C119.619 14.6118 117.779 22.6233 118.397 30.0093C119.015 37.3953 121.759 44.334 124.619 51.0367C125.338 52.7232 126.333 54.6262 128.002 54.841C129.501 55.034 130.873 53.6416 131.339 52.0466C131.698 50.4101 131.684 48.6999 131.298 47.0708C130.877 44.5813 130.345 42.0366 130.742 39.5419C131.138 37.0473 132.753 34.5821 135.016 34.2763C137.28 33.9706 139.595 36.8451 138.507 39.0712L139.065 38.1102Z" fill="#9D9651"/>
<path d="M274.405 347H0.718336C0.527822 347 0.34511 346.916 0.210395 346.766C0.0756811 346.616 0 346.413 0 346.202C0 345.99 0.0756811 345.787 0.210395 345.637C0.34511 345.488 0.527822 345.404 0.718336 345.404H274.405C274.595 345.404 274.778 345.488 274.912 345.637C275.047 345.787 275.123 345.99 275.123 346.202C275.123 346.413 275.047 346.616 274.912 346.766C274.778 346.916 274.595 347 274.405 347Z" fill="#3F3D56"/>
<path d="M759.282 347H485.595C485.405 347 485.222 346.916 485.087 346.766C484.953 346.616 484.877 346.413 484.877 346.202C484.877 345.99 484.953 345.787 485.087 345.637C485.222 345.488 485.405 345.404 485.595 345.404H759.282C759.472 345.404 759.655 345.488 759.79 345.637C759.924 345.787 760 345.99 760 346.202C760 346.413 759.924 346.616 759.79 346.766C759.655 346.916 759.472 347 759.282 347Z" fill="#3F3D56"/>
<line y1="-7.5" x2="102.648" y2="-7.5" transform="matrix(0.5722 -0.820114 0.732816 0.680427 359.532 169.394)" stroke="#E6E6E6" stroke-width="15"/>
<line y1="-7.5" x2="102.648" y2="-7.5" transform="matrix(0.5722 -0.820114 0.732816 0.680427 356.862 163.234)" stroke="#2DA1F4" stroke-width="15"/>
</g>
<defs>
<clipPath id="clip0_9_272">
<rect width="760" height="347" fill="white"/>
</clipPath>
</defs>
</svg>
