<svg width="100" height="100" viewBox="0 0 100 100" fill="none" xmlns="http://www.w3.org/2000/svg">
<path d="M50 8.33333C72.975 8.33333 91.6667 27.025 91.6667 50C91.6667 72.975 72.975 91.6667 50 91.6667C27.025 91.6667 8.33333 72.975 8.33333 50C8.33333 27.025 27.025 8.33333 50 8.33333ZM50 0C22.3875 0 0 22.3875 0 50C0 77.6125 22.3875 100 50 100C77.6125 100 100 77.6125 100 50C100 22.3875 77.6125 0 50 0ZM41.6667 41.6667H33.3333V50H41.6667V75H54.1667V50H61.75L62.5 41.6667H54.1667V38.1958C54.1667 36.2042 54.5667 35.4167 56.4917 35.4167H62.5V25H52.4833C44.9917 25 41.6667 28.3 41.6667 34.6167V41.6667Z" fill="#5F2CC9"/>
</svg>
