<svg width="90" height="90" viewBox="0 0 90 90" fill="none" xmlns="http://www.w3.org/2000/svg">
<g clip-path="url(#clip0_9_133)">
<path d="M88.2975 40.9875L49.0013 1.69496C46.7363 -0.566289 43.0687 -0.566289 40.7962 1.69496L32.655 9.85121L43.005 20.2012C45.4238 19.395 48.1763 19.9387 50.0888 21.855C52.0238 23.7862 52.5563 26.5725 51.7313 28.98L61.6987 38.955C64.1175 38.1187 66.9 38.6625 68.8238 40.5862C71.5275 43.2862 71.5275 47.6512 68.8238 50.3512C66.1275 53.0475 61.77 53.0475 59.0737 50.3512C57.0525 48.3225 56.5462 45.3375 57.5588 42.8662L48.225 33.5812V58.05C48.885 58.3725 49.5075 58.8112 50.055 59.355C52.7287 62.0587 52.7287 66.4162 50.055 69.105C47.3587 71.8087 42.9713 71.8087 40.2713 69.105C37.575 66.4087 37.575 62.0587 40.2713 59.3625C40.9538 58.6875 41.7225 58.1775 42.54 57.84V33.1312C41.7262 32.79 40.95 32.2987 40.29 31.6275C38.2463 29.5837 37.755 26.595 38.805 24.0937L28.635 13.875L1.6875 40.8037C-0.5625 43.0725 -0.5625 46.7437 1.6875 49.0125L40.9875 88.3012C43.2525 90.5662 46.92 90.5662 49.185 88.3012L88.2975 49.1887C90.5662 46.9275 90.5662 43.2562 88.2975 40.9875Z" fill="#2DA1F4"/>
</g>
<defs>
<clipPath id="clip0_9_133">
<rect width="90" height="90" fill="white"/>
</clipPath>
</defs>
</svg>
