<svg width="90" height="89" viewBox="0 0 90 89" fill="none" xmlns="http://www.w3.org/2000/svg">
<g clip-path="url(#clip0_9_145)">
<path d="M64.4738 35.3404C59.7338 14.7021 48.5288 7.91877 47.325 5.32603C46.275 3.86877 45.3375 1.79753 44.5688 0C44.4338 1.83082 44.3625 2.53356 42.6075 4.37918C39.8963 6.4726 25.965 17.9975 24.8325 41.4395C23.775 63.3058 40.845 76.336 43.1625 77.9967L43.425 78.1816C43.9076 81.7018 44.3202 85.231 44.6625 88.7671H46.4663C46.8938 84.9501 47.5313 81.1627 48.3788 77.4123C49.9425 76.3175 50.6438 75.6999 51.5663 74.8492C55.9349 70.8631 59.4067 66.0172 61.7573 60.6247C64.108 55.2323 65.2851 49.4133 65.2125 43.544C65.25 40.5333 64.8263 37.3969 64.4738 35.3404ZM44.4638 65.6507C44.4638 65.6507 44.4638 34.9853 45.495 34.989C46.2938 34.989 47.3325 74.5459 47.3325 74.5459C45.9038 74.3795 44.4638 68.0363 44.4638 65.6507Z" fill="#2DA1F4"/>
</g>
<defs>
<clipPath id="clip0_9_145">
<rect width="90" height="88.7671" fill="white"/>
</clipPath>
</defs>
</svg>
