<svg width="90" height="90" viewBox="0 0 90 90" fill="none" xmlns="http://www.w3.org/2000/svg">
<g clip-path="url(#clip0_9_143)">
<path d="M44.9925 90C43.7888 90 42.5888 89.685 41.535 89.0737L30.525 82.56C28.8825 81.6412 29.685 81.315 30.225 81.1237C32.4188 80.3625 32.8613 80.1862 35.205 78.8587C35.4488 78.72 35.7713 78.7725 36.0225 78.9225L44.4825 83.9437C44.79 84.1125 45.2213 84.1125 45.5025 83.9437L78.4838 64.9087C78.7913 64.7325 78.9863 64.38 78.9863 64.0162V25.9537C78.9863 25.5825 78.7875 25.2337 78.4725 25.0462L45.5063 6.02621C45.2025 5.84996 44.7975 5.84996 44.49 6.02621L11.5313 25.05C11.2125 25.2337 11.01 25.5937 11.01 25.9537V64.0162C11.01 64.38 11.2125 64.725 11.5313 64.8975L20.565 70.1175C25.4663 72.57 28.47 69.6825 28.47 66.78V29.2012C28.47 28.6687 28.8975 28.2525 29.43 28.2525H33.6113C34.1325 28.2525 34.5675 28.6725 34.5675 29.2012V66.78C34.5675 73.3237 31.005 77.0737 24.8025 77.0737C22.8975 77.0737 21.3938 77.0737 17.205 75.0075L8.55003 70.0312C6.41253 68.7975 5.09253 66.4875 5.09253 64.0162V25.9537C5.09253 23.4825 6.41628 21.1725 8.55003 19.9425L41.5313 0.884961C43.62 -0.296289 46.3913 -0.296289 48.4613 0.884961L81.4388 19.9425C83.5763 21.1762 84.9038 23.4825 84.9038 25.9537V64.0162C84.9038 66.4875 83.5763 68.79 81.4388 70.0312L48.4613 89.0737C47.4113 89.685 46.215 90 44.9925 90ZM71.6213 52.4737C71.6213 45.3487 66.8063 43.4512 56.67 42.1125C46.4288 40.7587 45.3863 40.0575 45.3863 37.6612C45.3863 35.6812 46.2675 33.0375 53.8538 33.0375C60.63 33.0375 63.1275 34.4962 64.155 39.0637C64.245 39.495 64.6388 39.81 65.0813 39.81H69.36C69.6263 39.81 69.8775 39.6937 70.0575 39.5062C70.2375 39.3037 70.335 39.045 70.3088 38.7712C69.645 30.9037 64.4175 27.2362 53.8538 27.2362C44.4488 27.2362 38.8388 31.2037 38.8388 37.86C38.8388 45.0787 44.4188 47.0737 53.445 47.9662C64.245 49.0237 65.0813 50.6025 65.0813 52.725C65.0813 56.4112 62.1225 57.9825 55.1738 57.9825C46.4475 57.9825 44.5275 55.7925 43.8825 51.45C43.8075 50.985 43.41 50.6437 42.9338 50.6437H38.67C38.1413 50.6437 37.7175 51.0637 37.7175 51.5925C37.7175 57.15 40.74 63.7725 55.1738 63.7725C65.6288 63.7762 71.6213 59.6625 71.6213 52.4737Z" fill="#2DA1F4"/>
</g>
<defs>
<clipPath id="clip0_9_143">
<rect width="90" height="90" fill="white"/>
</clipPath>
</defs>
</svg>
