<svg width="90" height="90" viewBox="0 0 90 90" fill="none" xmlns="http://www.w3.org/2000/svg">
<path d="M45 0C20.1488 0 0 20.1488 0 45C0 69.8512 20.1488 90 45 90C69.8512 90 90 69.8512 90 45C90 20.1488 69.8512 0 45 0ZM48.75 60.2137V48.75H59.9775C59.7563 53.0363 59.1825 57.15 58.2675 61.0462C55.1813 60.5962 51.99 60.3412 48.75 60.2137V60.2137ZM56.0887 68.3212C54.2175 73.3087 51.7425 77.685 48.75 81.2812V67.7063C51.2475 67.8113 53.6962 68.01 56.0887 68.3212ZM48.75 41.25V29.9438C52.005 29.8163 55.2038 29.5575 58.305 29.1038C59.1975 32.955 59.7638 37.02 59.9775 41.25H48.75ZM48.75 22.4475V8.71875C51.7725 12.3525 54.2662 16.7813 56.1412 21.8288C53.7337 22.1438 51.2663 22.3425 48.75 22.4475ZM58.8863 10.1963C63.525 12.0563 67.7138 14.8012 71.2238 18.2437C68.8163 19.1212 66.3075 19.9013 63.6525 20.52C62.3625 16.8 60.7463 13.3575 58.8863 10.1963V10.1963ZM31.7325 61.0462C30.8175 57.15 30.24 53.0363 30.0225 48.75H41.25V60.2137C38.0062 60.3412 34.8225 60.5962 31.7325 61.0462ZM41.25 67.7063V81.2812C38.2575 77.685 35.7825 73.3087 33.9113 68.3212C36.3038 68.01 38.7525 67.8113 41.25 67.7063ZM30.0225 41.25C30.2362 37.02 30.7987 32.955 31.695 29.1038C34.7962 29.5575 37.995 29.8163 41.25 29.9438V41.25H30.0225ZM33.8625 21.8288C35.7375 16.7813 38.2312 12.3525 41.25 8.71875V22.4475C38.7337 22.3425 36.2662 22.1438 33.8625 21.8288ZM26.3438 20.5163C23.6888 19.8975 21.18 19.1175 18.7762 18.24C22.29 14.7975 26.475 12.0525 31.1137 10.1925C29.2537 13.3575 27.6375 16.8 26.3438 20.5163V20.5163ZM24.285 27.7087C23.295 32.025 22.6575 36.5587 22.44 41.25H7.69125C8.31 35.0325 10.4625 29.2612 13.755 24.3075C17.055 25.6612 20.565 26.82 24.285 27.7087ZM24.3188 62.4412C20.6138 63.3262 17.1187 64.4738 13.83 65.8163C10.4925 60.8363 8.31375 55.02 7.69125 48.75H22.4438C22.6613 53.4937 23.31 58.08 24.3188 62.4412ZM26.3925 69.63C27.675 73.29 29.2725 76.6838 31.1063 79.8C26.52 77.9625 22.3838 75.2588 18.8963 71.8688C21.2813 71.01 23.7675 70.2375 26.3925 69.63V69.63ZM63.6075 69.63C66.2325 70.2413 68.715 71.0063 71.1038 71.8688C67.6125 75.255 63.4763 77.9625 58.89 79.8038C60.7238 76.6838 62.3212 73.29 63.6075 69.63ZM65.6812 62.4412C66.6937 58.08 67.3388 53.4937 67.56 48.75H82.3125C81.6863 55.02 79.5075 60.8363 76.17 65.8163C72.8813 64.4738 69.3825 63.3262 65.6812 62.4412V62.4412ZM67.56 41.25C67.3425 36.5587 66.7013 32.025 65.715 27.7087C69.435 26.82 72.9488 25.6612 76.2488 24.3075C79.5375 29.2612 81.69 35.0325 82.3087 41.25H67.56Z" fill="#2DA1F4"/>
</svg>
