<svg width="90" height="90" viewBox="0 0 90 90" fill="none" xmlns="http://www.w3.org/2000/svg">
<path d="M59.4451 33.6787H42.2401V0H59.4451C68.7301 0 76.2826 7.5525 76.2826 16.8375C76.2826 26.1225 68.7301 33.6787 59.4451 33.6787ZM47.7564 28.1625H59.4451C65.6889 28.1625 70.7664 23.0813 70.7664 16.8413C70.7664 10.6013 65.6851 5.52 59.4451 5.52H47.7564V28.1625ZM47.7564 33.6787H30.5551C21.2701 33.6787 13.7176 26.1263 13.7176 16.8413C13.7176 7.55625 21.2701 0 30.5551 0H47.7601V33.6787H47.7564ZM30.5551 5.51625C24.3114 5.51625 19.2339 10.5975 19.2339 16.8375C19.2339 23.0775 24.3114 28.1625 30.5551 28.1625H42.2439V5.51625H30.5551ZM47.7564 61.8375H30.5551C21.2701 61.8375 13.7176 54.285 13.7176 45C13.7176 35.715 21.2701 28.1625 30.5551 28.1625H47.7601V61.8375H47.7564ZM30.5551 33.6787C24.3114 33.6787 19.2339 38.76 19.2339 45C19.2339 51.24 24.3151 56.3213 30.5551 56.3213H42.2439V33.6787H30.5551ZM30.6451 90C21.3114 90 13.7139 82.4475 13.7139 73.1625C13.7139 63.8775 21.2664 56.325 30.5514 56.325H47.7564V72.9788C47.7564 82.365 40.0801 90 30.6451 90ZM30.5551 61.8375C27.5538 61.8415 24.6765 63.0355 22.5542 65.1578C20.4319 67.2801 19.2378 70.1574 19.2339 73.1588C19.2339 79.4025 24.3526 84.48 30.6489 84.48C37.0426 84.48 42.2476 79.32 42.2476 72.975V61.8375H30.5551ZM59.4451 61.8375H59.0776C49.7926 61.8375 42.2401 54.285 42.2401 45C42.2401 35.715 49.7926 28.1625 59.0776 28.1625H59.4451C68.7301 28.1625 76.2826 35.715 76.2826 45C76.2826 54.285 68.7301 61.8375 59.4451 61.8375ZM59.0814 33.6787C52.8376 33.6787 47.7601 38.76 47.7601 45C47.7601 51.24 52.8414 56.3213 59.0814 56.3213H59.4489C65.6926 56.3213 70.7701 51.24 70.7701 45C70.7701 38.76 65.6889 33.6787 59.4489 33.6787H59.0814Z" fill="#2DA1F4"/>
</svg>
