<svg width="100" height="100" viewBox="0 0 100 100" fill="none" xmlns="http://www.w3.org/2000/svg">
<path d="M50 8.33333C72.975 8.33333 91.6667 27.025 91.6667 50C91.6667 72.975 72.975 91.6667 50 91.6667C27.025 91.6667 8.33333 72.975 8.33333 50C8.33333 27.025 27.025 8.33333 50 8.33333ZM50 0C22.3875 0 0 22.3875 0 50C0 77.6125 22.3875 100 50 100C77.6125 100 100 77.6125 100 50C100 22.3875 77.6125 0 50 0ZM50 29.5083C56.675 29.5083 57.4667 29.5333 60.1042 29.6542C66.8833 29.9625 70.0417 33.175 70.3542 39.9C70.4708 42.5375 70.4958 43.325 70.4958 50C70.4958 56.675 70.4708 57.4667 70.3542 60.1C70.0417 66.8208 66.8875 70.0417 60.1042 70.35C57.4667 70.4667 56.6792 70.4958 50 70.4958C43.325 70.4958 42.5333 70.4708 39.9 70.35C33.1083 70.0375 29.9625 66.8125 29.65 60.1C29.5333 57.4667 29.5042 56.675 29.5042 50C29.5042 43.325 29.5333 42.5333 29.65 39.9C29.9583 33.1708 33.1167 29.9583 39.9 29.65C42.5333 29.5292 43.325 29.5083 50 29.5083V29.5083ZM50 25C43.2083 25 42.3625 25.0292 39.6917 25.1542C30.6083 25.5708 25.5667 30.6083 25.15 39.6917C25.0292 42.3625 25 43.2125 25 50C25 56.7917 25.0292 57.6417 25.15 60.3083C25.5667 69.3875 30.6083 74.4333 39.6917 74.85C42.3625 74.9708 43.2083 75 50 75C56.7917 75 57.6417 74.9708 60.3125 74.85C69.3792 74.4333 74.4417 69.3958 74.85 60.3083C74.9708 57.6417 75 56.7917 75 50C75 43.2125 74.9708 42.3625 74.85 39.6917C74.4417 30.6208 69.3958 25.5667 60.3125 25.1542C57.6417 25.0292 56.7917 25 50 25V25ZM50 37.1625C42.9125 37.1625 37.1625 42.9083 37.1625 50C37.1625 57.0917 42.9125 62.8375 50 62.8375C57.0875 62.8375 62.8375 57.0917 62.8375 50C62.8375 42.9125 57.0875 37.1625 50 37.1625ZM50 58.3333C45.3958 58.3333 41.6667 54.6042 41.6667 50C41.6667 45.4 45.3958 41.6667 50 41.6667C54.6 41.6667 58.3375 45.3958 58.3375 50C58.3375 54.6042 54.6 58.3333 50 58.3333ZM63.3417 33.6583C61.6875 33.6583 60.3417 35 60.3417 36.6583C60.3417 38.3125 61.6833 39.6583 63.3417 39.6583C65 39.6583 66.3458 38.3167 66.3458 36.6583C66.3458 35 65.0042 33.6583 63.3417 33.6583Z" fill="#5F2CC9"/>
</svg>
