<svg width="100" height="100" viewBox="0 0 100 100" fill="none" xmlns="http://www.w3.org/2000/svg">
<path d="M50 8.33333C72.975 8.33333 91.6667 27.025 91.6667 50C91.6667 72.975 72.975 91.6667 50 91.6667C27.025 91.6667 8.33333 72.975 8.33333 50C8.33333 27.025 27.025 8.33333 50 8.33333ZM50 0C22.3875 0 0 22.3875 0 50C0 77.6125 22.3875 100 50 100C77.6125 100 100 77.6125 100 50C100 22.3875 77.6125 0 50 0ZM41.6667 33.3333C41.6667 35.6542 39.8042 37.5333 37.5 37.5333C35.1958 37.5333 33.3333 35.6583 33.3333 33.3333C33.3333 31.0125 35.1958 29.1333 37.5 29.1333C39.8042 29.1333 41.6667 31.0167 41.6667 33.3333V33.3333ZM41.6667 41.6667H33.3333V66.6667H41.6667V41.6667ZM54.1667 41.6667H45.8333V66.6667H54.1667V54.7458C54.1667 47.5708 62.5083 46.9083 62.5083 54.7458V66.6667H70.8333V52.6708C70.8333 38.9875 57.8 39.4875 54.1667 46.2208V41.6667Z" fill="#5F2CC9"/>
</svg>
