<svg width="90" height="90" viewBox="0 0 90 90" fill="none" xmlns="http://www.w3.org/2000/svg">
<path d="M0 0H90V90H0V0ZM82.6275 68.535C81.9713 64.4287 79.2975 60.9787 71.3662 57.7612C68.6062 56.4675 65.5387 55.5675 64.6275 53.4862C64.2862 52.2487 64.2337 51.5737 64.455 50.8425C65.0175 48.42 67.8862 47.6925 70.1362 48.3675C71.5987 48.8175 72.9488 49.9425 73.7962 51.7425C77.6738 49.2075 77.6738 49.2075 80.3775 47.5238C79.365 45.9487 78.8625 45.27 78.18 44.5987C75.8175 41.955 72.6712 40.605 67.5525 40.7213L64.9088 41.055C62.3737 41.6737 59.9588 43.0238 58.4963 44.8237C54.2212 49.665 55.455 58.1025 60.63 61.59C65.7487 65.415 73.2337 66.255 74.19 69.8587C75.09 74.2462 70.9275 75.6525 66.8175 75.1462C63.7763 74.4712 62.0925 72.9487 60.2362 70.1362L53.3737 74.0775C54.1613 75.8775 55.0613 76.6613 56.4113 78.2363C62.9363 84.8213 79.2487 84.4837 82.1775 74.4712C82.2862 74.1338 83.0775 71.8275 82.455 68.2838L82.6275 68.535ZM48.9412 41.3662H40.5113C40.5113 48.6338 40.4775 55.8563 40.4775 63.135C40.4775 67.755 40.7137 71.9963 39.96 73.3013C38.7225 75.885 35.535 75.555 34.0875 75.1012C32.6025 74.3662 31.8488 73.3538 30.975 71.895C30.7388 71.5013 30.5625 71.16 30.4988 71.16L23.655 75.3787C24.7987 77.7412 26.4675 79.7738 28.62 81.0675C31.8263 82.98 36.135 83.5988 40.6462 82.5863C43.5825 81.7388 46.1138 79.995 47.4375 77.295C49.35 73.8075 48.945 69.5325 48.9263 64.7475C48.9712 57.045 48.9263 49.3387 48.9263 41.5762L48.9412 41.3662Z" fill="#2DA1F4"/>
</svg>
