<svg width="90" height="90" viewBox="0 0 90 90" fill="none" xmlns="http://www.w3.org/2000/svg">
<path d="M53.3625 45.015C53.3625 47.2382 52.4796 49.3704 50.9079 50.9428C49.3362 52.5151 47.2044 53.399 44.9813 53.4C42.7574 53.4 40.6247 52.5166 39.0522 50.9441C37.4797 49.3716 36.5962 47.2388 36.5962 45.015C36.5962 42.7918 37.4792 40.6596 39.0508 39.0872C40.6225 37.5148 42.7543 36.631 44.9775 36.63C47.2013 36.63 49.3341 37.5134 50.9066 39.0859C52.4791 40.6584 53.3625 42.7911 53.3625 45.015ZM63.2925 4.92749C58.245 4.92749 51.6413 8.52749 44.9625 14.76C38.2875 8.56124 31.68 5.00249 26.6363 5.00249C25.0988 5.00249 23.7 5.35124 22.4888 6.04499C17.3325 9.01874 16.1775 18.285 18.84 29.9137C7.425 33.4387 0 39.075 0 45.015C0 50.9775 7.4625 56.6287 18.9113 60.1275C16.2713 71.8012 17.4487 81.0825 22.6163 84.0525C23.8162 84.7537 25.2037 85.0837 26.7487 85.0837C31.7925 85.0837 38.4 81.4837 45.0788 75.2438C51.7537 81.4463 58.3613 85.005 63.405 85.005C64.9425 85.005 66.3412 84.6675 67.5525 83.9737C72.705 81.0037 73.8637 71.7375 71.2012 60.105C82.575 56.61 90 50.9625 90 45.015C90 39.0525 82.5375 33.4012 71.0888 29.895C73.7288 18.2325 72.5512 8.94374 67.3838 5.96999C66.1912 5.27999 64.8038 4.93124 63.2888 4.92749H63.2925ZM63.2737 9.01499V9.03749C64.1175 9.03749 64.7962 9.20249 65.3662 9.51374C67.8637 10.9462 68.9475 16.395 68.1037 23.4037C67.9012 25.1287 67.5713 26.9475 67.1662 28.8037C63.5662 27.9187 59.6437 27.24 55.515 26.8012C53.04 23.4075 50.4712 20.325 47.8838 17.625C53.8538 12.075 59.46 9.02999 63.2775 9.01874L63.2737 9.01499ZM26.6363 9.08999C30.4312 9.08999 36.0638 12.12 42.0488 17.64C39.4762 20.34 36.9113 23.4037 34.4738 26.7975C30.3225 27.2362 26.3962 27.915 22.8 28.815C22.38 26.9775 22.0688 25.2 21.8475 23.49C20.985 16.485 22.05 11.04 24.525 9.58874C25.2375 9.25124 26.025 9.11249 26.6363 9.09374V9.08999ZM44.9437 20.5275C46.65 22.2825 48.3563 24.2475 50.0438 26.3925C48.3937 26.3175 46.7062 26.265 45 26.265C43.275 26.265 41.5688 26.3025 39.9 26.3925C41.55 24.2475 43.2562 22.2825 44.9437 20.5237V20.5275ZM45 30.375C47.775 30.375 50.5387 30.5025 53.2575 30.7237C54.78 32.9062 56.265 35.235 57.6938 37.6987C59.0888 40.0987 60.3563 42.5362 61.5112 44.9962C60.3563 47.4525 59.0888 49.9087 57.7125 52.3087C56.2875 54.7837 54.8138 57.1387 53.2875 59.3212C50.5575 59.5575 47.79 59.6887 45 59.6887C42.225 59.6887 39.4613 59.5575 36.7425 59.34C35.22 57.1575 33.735 54.825 32.3062 52.365C30.9112 49.965 29.6438 47.5275 28.4888 45.0675C29.625 42.6037 30.9112 40.1437 32.2875 37.74C33.7125 35.265 35.1862 32.9175 36.7125 30.735C39.4425 30.495 42.21 30.3675 45 30.3675V30.375ZM31.3687 31.3275C30.4688 32.7412 29.5687 34.1887 28.7287 35.6775C27.885 37.14 27.0975 38.61 26.3475 40.08C25.3538 37.62 24.51 35.1675 23.8125 32.7787C26.2125 32.2162 28.7437 31.7175 31.3687 31.3312V31.3275ZM58.5938 31.3275C61.2 31.7137 63.7125 32.19 66.1162 32.7787C65.4413 35.1487 64.5975 37.5862 63.6413 40.0275C62.8913 38.565 62.1037 37.0912 61.2412 35.625C60.3975 34.155 59.4975 32.7225 58.5975 31.3275H58.5938ZM70.08 33.8587C71.895 34.4212 73.62 35.0475 75.2363 35.7262C81.7312 38.5012 85.9313 42.1312 85.9313 45.0112C85.9125 47.8912 81.7125 51.5362 75.2175 54.2925C73.6425 54.9675 71.9175 55.575 70.1362 56.1412C69.0863 52.5487 67.7138 48.8062 66.0113 44.9662C67.6988 41.1525 69.0488 37.4287 70.08 33.8512V33.8587ZM19.8488 33.8737C20.8913 37.4737 22.2675 41.2125 23.9738 45.0487C22.2863 48.8625 20.9288 52.5862 19.9013 56.1637C18.0863 55.6012 16.3612 54.9712 14.7638 54.2887C8.26875 51.525 4.06875 47.8912 4.06875 45.0112C4.06875 42.1312 8.26875 38.4787 14.7638 35.7262C16.3388 35.0512 18.0638 34.4437 19.8488 33.8737ZM63.6413 49.9237C64.635 52.3875 65.4787 54.8437 66.1762 57.2287C63.7762 57.8175 61.2412 58.3162 58.6162 58.6912C59.5162 57.285 60.4163 55.8337 61.26 54.3487C62.1038 52.8862 62.8913 51.3937 63.645 49.9237H63.6413ZM26.3475 49.9987C27.0975 51.4687 27.885 52.935 28.7475 54.405C29.61 55.8675 30.4913 57.3 31.3913 58.6912C28.785 58.3087 26.2725 57.8287 23.8687 57.2437C24.5437 54.8812 25.3913 52.4362 26.3438 49.995L26.3475 49.9987ZM67.2 61.2C67.62 63.0487 67.95 64.83 68.1525 66.5362C69.015 73.5412 67.95 78.9863 65.475 80.4412C64.9237 80.7787 64.2075 80.9212 63.3637 80.9212C59.5687 80.9212 53.9362 77.895 47.9512 72.3712C50.5238 69.6712 53.0887 66.6112 55.5262 63.2212C59.6775 62.7787 63.6038 62.0962 67.2 61.1962V61.2ZM22.8375 61.2375C26.4375 62.115 30.36 62.7937 34.4887 63.2325C36.9637 66.6262 39.5325 69.7087 42.12 72.405C36.1388 77.9662 30.525 81.0113 26.7075 81.0113C25.8825 80.9925 25.185 80.8238 24.6337 80.5163C22.1362 79.0912 21.0525 73.6387 21.8963 66.63C22.0988 64.905 22.4288 63.09 22.8338 61.2375H22.8375ZM39.9375 63.6375C41.5875 63.7125 43.275 63.765 44.9813 63.765C46.7062 63.765 48.4125 63.7275 50.0812 63.6375C48.4312 65.7825 46.725 67.7437 45.0375 69.5062C43.3312 67.7437 41.625 65.7825 39.9375 63.6375Z" fill="#2DA1F4"/>
</svg>
