<svg width="90" height="90" viewBox="0 0 90 90" fill="none" xmlns="http://www.w3.org/2000/svg">
<path d="M45 0C69.8512 0 90 20.1488 90 45C90 69.8512 69.8512 90 45 90C20.1488 90 0 69.8512 0 45C0 20.1488 20.1488 0 45 0ZM36.0562 59.9925C36.7125 62.4113 36.6412 64.6725 35.9662 66.7125L35.7225 67.3875C35.6325 67.6162 35.5275 67.8375 35.43 68.0475C34.905 69.135 34.2075 70.1475 33.3487 71.085C30.7312 73.9312 27.0788 75.0112 25.5112 74.1038C23.8237 73.1212 24.6637 69.0975 27.7013 65.8913C30.9675 62.4487 35.6512 60.2325 35.6512 60.2325V60.2212L36.0562 59.9925ZM73.2225 19.2638C71.19 11.265 57.9338 8.63625 45.39 13.095C37.9313 15.7463 29.85 19.9125 24.0412 25.3462C17.13 31.8 16.0312 37.425 16.485 39.7763C18.0863 48.0675 29.4487 53.49 34.1213 57.5137V57.5363C32.745 58.2113 22.6613 63.27 20.2987 68.505C17.7675 74.0175 20.6925 77.9587 22.605 78.4613C28.5112 80.0963 34.5863 77.1113 37.8488 72.2775C40.9988 67.5488 40.7212 61.4737 39.3638 58.4925C41.2237 57.9862 43.4137 57.7613 46.2262 58.1025C54.105 59.0025 55.68 63.9525 55.3387 65.9775C55.0013 67.9987 53.3775 69.18 52.8112 69.5175C52.2487 69.8587 52.08 69.9675 52.1325 70.1963C52.1888 70.5338 52.4738 70.5338 52.92 70.4775C53.5388 70.365 57.03 68.79 57.1987 64.9613C57.3675 60.1237 52.7513 54.7275 44.5425 54.8363C41.1675 54.8963 39.0263 55.1775 37.5112 55.7962C37.3988 55.6275 37.2825 55.515 37.1175 55.4025C32.055 49.9463 22.6612 46.1213 23.055 38.865C23.1675 36.2213 24.1238 29.25 41.055 20.8125C54.9487 13.89 66.0337 15.8063 67.9463 20.025C70.695 26.04 62.0362 37.2375 47.58 38.865C42.0675 39.4837 39.1987 37.35 38.4637 36.5588C37.68 35.715 37.5675 35.6588 37.2863 35.8313C36.8363 36.0563 37.1175 36.7875 37.2863 37.2375C37.7362 38.3625 39.48 40.3312 42.5212 41.3438C45.1612 42.1875 51.6338 42.69 59.3962 39.6562C68.1113 36.285 74.9175 26.8875 72.9487 19.0125L73.2225 19.2638Z" fill="#2DA1F4"/>
</svg>
